<svg width="50" height="50" viewBox="0 0 50 50" fill="none" xmlns="http://www.w3.org/2000/svg">
<path d="M49.7663 0.233626C49.4546 -0.0778753 48.9494 -0.0778753 48.6379 0.233626L46.1368 2.73479C45.4896 2.30509 44.7307 2.07412 43.9362 2.07412C42.8706 2.07412 41.8687 2.48914 41.1153 3.24257C40.3617 3.99611 39.9468 4.99796 39.9468 6.06374C39.9468 6.85824 40.1778 7.6171 40.6074 8.26415L37.8398 11.0317L35.395 8.58692C34.8424 8.03435 34.1077 7.72998 33.3263 7.72998C32.5448 7.72998 31.8101 8.03424 31.2576 8.58682C30.1169 9.72761 30.1169 11.5836 31.2576 12.7244L33.7024 15.1693L32.5741 16.2976L30.1291 13.8527C29.5765 13.3002 28.8418 12.9958 28.0604 12.9958C27.279 12.9958 26.5443 13.3001 25.9917 13.8527L23.3587 16.4856C22.8062 17.0382 22.5018 17.773 22.5018 18.5544C22.5018 19.3358 22.8061 20.0706 23.3587 20.6231L25.8036 23.0679L24.6752 24.1964L22.2304 21.7516C21.6778 21.199 20.9431 20.8946 20.1616 20.8946C19.3802 20.8946 18.6455 21.1989 18.0929 21.7515C17.5403 22.3039 17.236 23.0388 17.236 23.8202C17.236 24.6016 17.5402 25.3364 18.0929 25.889L20.5378 28.3337L19.398 29.4736C17.5759 27.7979 15.8825 26.9492 14.3567 26.9492C13.4005 26.9492 12.5464 27.2979 11.8868 27.9577C10.9831 28.8614 10.6739 30.1232 11.0164 31.5106C11.3214 32.7463 12.1235 34.0751 13.4031 35.4684L12.2629 36.6086L9.81759 34.1641C9.26501 33.6116 8.5303 33.3072 7.74889 33.3072C6.96737 33.3072 6.23277 33.6115 5.68019 34.1641C5.12762 34.7166 4.82324 35.4515 4.82324 36.2329C4.82324 37.0143 5.12762 37.7491 5.68019 38.3016L8.12507 40.7465L5.68019 43.1914C5.36858 43.5031 5.36858 44.0082 5.68019 44.3197C6.61342 45.253 6.61342 46.7716 5.68019 47.7048C4.74675 48.6382 3.22829 48.6381 2.29496 47.7049C1.36173 46.7716 1.36173 45.253 2.29496 44.3197C2.60656 44.0081 2.60656 43.5028 2.29496 43.1913C1.98335 42.8798 1.47812 42.8797 1.16661 43.1914C-0.388871 44.7468 -0.388871 47.2779 1.16661 48.8334C1.94441 49.6112 2.96605 50 3.98768 50C5.00932 50 6.03095 49.6112 6.80875 48.8333C8.17103 47.471 8.34008 45.3604 7.31632 43.8123L9.25363 41.8749L11.6986 44.3199C12.2512 44.8724 12.9859 45.1768 13.7673 45.1768C14.5487 45.1767 15.2834 44.8725 15.836 44.3199C16.9767 43.1791 16.9767 41.3231 15.836 40.1823L13.3911 37.7374L14.5311 36.5975C16.3529 38.273 18.0463 39.1216 19.5722 39.1218C20.5286 39.1218 21.3826 38.7732 22.0422 38.1135C22.946 37.2097 23.2551 35.948 22.9127 34.5606C22.6077 33.3249 21.8055 31.996 20.5259 30.6028L21.6661 29.4625L24.111 31.9074C24.6636 32.4599 25.3983 32.7642 26.1798 32.7643C26.9612 32.7642 27.6959 32.46 28.2485 31.9074C29.3892 30.7666 29.3892 28.9106 28.2485 27.7698L25.8036 25.325L26.9321 24.1966L29.3769 26.6413C29.9293 27.1939 30.664 27.4983 31.4455 27.4984C32.2272 27.4984 32.9618 27.194 33.5144 26.6414L36.1473 24.0086C37.288 22.8678 37.288 21.0118 36.1473 19.871L33.7025 17.4261L34.8309 16.2978L37.2758 18.7426C37.8283 19.2951 38.5631 19.5995 39.3446 19.5996C40.126 19.5996 40.8607 19.2952 41.4133 18.7426C41.9658 18.1901 42.2702 17.4552 42.2702 16.6739C42.2702 15.8924 41.966 15.1577 41.4133 14.6051L38.9684 12.1604L41.7359 9.39281C42.383 9.8225 43.142 10.0535 43.9365 10.0535C45.0021 10.0535 46.004 9.63845 46.7575 8.88502C48.1199 7.52263 48.289 5.41212 47.265 3.86387L49.7666 1.36229C50.0779 1.05047 50.0779 0.54534 49.7663 0.233626ZM14.7075 43.1913C14.4563 43.4425 14.1223 43.5809 13.7671 43.5809C13.4119 43.5809 13.0779 43.4425 12.8267 43.1913L6.80853 37.1731C6.55746 36.9221 6.41905 36.5881 6.41905 36.2329C6.41905 35.8777 6.55735 35.5436 6.80853 35.2924C7.05971 35.0413 7.39366 34.903 7.74878 34.903C8.1039 34.903 8.43806 35.0413 8.68914 35.2925L11.6972 38.3006C11.6993 38.3027 14.7073 41.3107 14.7073 41.3107C15.2259 41.8292 15.2259 42.6729 14.7075 43.1913ZM20.9137 36.9851C20.5547 37.344 20.1035 37.526 19.5725 37.526C18.3604 37.5258 16.7664 36.5991 15.0836 34.9163C12.6107 32.4435 11.8372 30.264 13.0148 29.0863C13.3738 28.7274 13.8251 28.5453 14.3564 28.5453C15.5677 28.5453 17.1614 29.4718 18.8438 31.1539C20.2209 32.5311 21.0912 33.8405 21.3632 34.9429C21.5724 35.7906 21.4211 36.4777 20.9137 36.9851ZM27.12 30.7788C26.8688 31.03 26.5348 31.1684 26.1796 31.1684C25.8244 31.1684 25.4904 31.03 25.2392 30.7788L19.2211 24.7607C18.97 24.5097 18.8317 24.1756 18.8317 23.8204C18.8317 23.4652 18.97 23.1312 19.2211 22.8801C19.4723 22.629 19.8063 22.4907 20.1615 22.4907C20.5167 22.4907 20.8507 22.629 21.1019 22.8801L24.1107 25.889C24.1112 25.8895 27.1201 28.8983 27.1201 28.8983C27.6384 29.4167 27.6384 30.2604 27.12 30.7788ZM35.4083 21.9397C35.4083 22.2949 35.27 22.629 35.0188 22.88L32.3858 25.513C32.1346 25.7641 31.8007 25.9025 31.4455 25.9025C31.0902 25.9025 30.7563 25.7641 30.5051 25.5129L24.487 19.4948C24.2358 19.2437 24.0975 18.9097 24.0975 18.5545C24.0975 18.1993 24.2358 17.8653 24.487 17.6142L27.12 14.9812C27.3711 14.7301 27.7051 14.5917 28.0603 14.5917C28.4155 14.5917 28.7495 14.73 29.0007 14.9812L32.0095 17.9902C32.01 17.9907 35.0188 20.9995 35.0188 20.9995C35.27 21.2506 35.4083 21.5846 35.4083 21.9397ZM40.6741 16.6738C40.6741 17.0289 40.5358 17.363 40.2846 17.6141C40.0334 17.8653 39.6995 18.0037 39.3443 18.0037C38.989 18.0037 38.6551 17.8653 38.4039 17.6141L32.3858 11.596C31.8673 11.0776 31.8673 10.2338 32.3858 9.71537C32.637 9.46419 32.9709 9.32589 33.3262 9.32589C33.6814 9.32589 34.0153 9.46419 34.2665 9.71537L37.2753 12.7242C37.2759 12.7247 40.2847 15.7336 40.2847 15.7336C40.5358 15.9847 40.6741 16.3186 40.6741 16.6738ZM45.6289 7.75636C45.1767 8.20851 44.5756 8.45756 43.9362 8.45756C43.2969 8.45756 42.6958 8.20851 42.2436 7.75636C41.7915 7.30432 41.5425 6.70324 41.5425 6.06385C41.5425 5.42436 41.7915 4.82327 42.2436 4.37113C42.6958 3.91909 43.2969 3.67003 43.9362 3.67003C44.5756 3.67003 45.1767 3.91909 45.6289 4.37123C46.5622 5.30446 46.5622 6.82303 45.6289 7.75636Z" fill="#3E3430"/>
<path d="M0.233308 1.36176C0.544384 1.67283 1.05057 1.67283 1.36175 1.36176C1.67294 1.05068 1.67283 0.544489 1.36175 0.233306C1.05068 -0.0777693 0.54449 -0.0777693 0.233308 0.233306C-0.077768 0.544382 -0.077768 1.05068 0.233308 1.36176Z" transform="translate(32.1526 21.1421)" fill="#3E3430"/>
<path d="M0.233308 0.233306C-0.0777683 0.544382 -0.0777683 1.05057 0.233308 1.36165C0.544383 1.67272 1.05057 1.67272 1.36175 1.36165C1.67283 1.05057 1.67283 0.544382 1.36175 0.233306C1.05057 -0.0777696 0.544383 -0.0777696 0.233308 0.233306Z" transform="translate(28.9553 19.4492)" fill="#3E3430"/>
<path d="M0.233307 0.233308C-0.0777686 0.544384 -0.0777686 1.05057 0.233307 1.36165C0.544383 1.67272 1.05057 1.67272 1.36175 1.36165C1.67283 1.05057 1.67283 0.544384 1.36175 0.233308C1.05068 -0.0777676 0.544383 -0.0777676 0.233307 0.233308Z" transform="translate(13.8387 29.9097)" fill="#3E3430"/>
</svg>
