<svg width="23" height="22" viewBox="0 0 23 22" fill="none" xmlns="http://www.w3.org/2000/svg">
<path d="M2.02279 1.36041e-07C0.907422 1.36041e-07 2.63214e-07 0.937993 2.63214e-07 2.09093C2.63214e-07 3.24388 0.907422 4.18187 2.02279 4.18187C3.13815 4.18187 4.04558 3.24388 4.04558 2.09093C4.04553 0.937993 3.13811 1.36041e-07 2.02279 1.36041e-07ZM2.02279 3.0143C1.53017 3.0143 1.12943 2.60001 1.12943 2.09084C1.12943 1.58163 1.53022 1.16738 2.02279 1.16738C2.51536 1.16738 2.91615 1.58168 2.91615 2.09084C2.91615 2.6001 2.51536 3.0143 2.02279 3.0143Z" transform="translate(7.62109 17.8181)" fill="#FFFCF7"/>
<path d="M2.02279 1.36041e-07C0.907423 1.36041e-07 5.92232e-07 0.937993 5.92232e-07 2.09093C5.92232e-07 3.24388 0.907423 4.18187 2.02279 4.18187C3.13815 4.18187 4.04558 3.24388 4.04558 2.09093C4.04553 0.937993 3.13811 1.36041e-07 2.02279 1.36041e-07ZM2.02279 3.0143C1.53018 3.0143 1.12943 2.60001 1.12943 2.09084C1.12943 1.58163 1.53022 1.16738 2.02279 1.16738C2.5154 1.16738 2.91615 1.58168 2.91615 2.09084C2.91615 2.6001 2.51536 3.0143 2.02279 3.0143Z" transform="translate(14.7168 17.8181)" fill="#FFFCF7"/>
<path d="M8.65735 2.26735e-07H0.564713C0.252821 2.26735e-07 9.87054e-08 0.261338 9.87054e-08 0.583738C9.87054e-08 0.906139 0.252865 1.16748 0.564713 1.16748H8.65735C8.96924 1.16748 9.22206 0.906139 9.22206 0.583738C9.22206 0.261292 8.96924 2.26735e-07 8.65735 2.26735e-07Z" transform="translate(8.57959 6.80859)" fill="#FFFCF7"/>
<path d="M7.77639 1.70051e-07H0.564713C0.252821 1.70051e-07 8.77381e-08 0.261338 8.77381e-08 0.583738C8.77381e-08 0.906139 0.252821 1.16748 0.564713 1.16748H7.77634C8.08823 1.16748 8.34105 0.906139 8.34105 0.583738C8.34105 0.261384 8.08823 1.70051e-07 7.77639 1.70051e-07Z" transform="translate(9.02051 9.84058)" fill="#FFFCF7"/>
<path d="M22.7458 4.20843C22.5305 3.93521 22.2113 3.77853 21.8703 3.77853H4.28009L3.92485 1.99593C3.85068 1.62408 3.60532 1.31184 3.26836 1.16061L0.789702 0.0484795C0.50355 -0.080007 0.170993 0.0557233 0.0468738 0.351423C-0.0773802 0.647216 0.0539265 0.991023 0.339944 1.11932L2.81865 2.2315L5.55106 15.942C5.6587 16.482 6.12391 16.8739 6.65727 16.8739H20.1862C20.4981 16.8739 20.7509 16.6126 20.7509 16.2902C20.7509 15.9678 20.4981 15.7064 20.1862 15.7064H6.65731L6.32493 14.0386H20.2908C20.8241 14.0386 21.2894 13.6467 21.397 13.1068L22.9765 5.18144C23.0453 4.83633 22.9612 4.48161 22.7458 4.20843ZM20.2908 12.8713H6.09228L4.51278 4.94596L21.8703 4.94601L20.2908 12.8713Z" fill="#FFFCF7"/>
</svg>
