<svg width="198" height="171" viewBox="0 0 198 171" fill="none" xmlns="http://www.w3.org/2000/svg">
<path d="M17.4136 1.05741e-06C7.81172 1.05741e-06 2.26593e-06 7.2908 2.26593e-06 16.2523C2.26593e-06 25.2139 7.81172 32.5047 17.4136 32.5047C27.0154 32.5047 34.8271 25.2139 34.8271 16.2523C34.8268 7.2908 27.015 1.05741e-06 17.4136 1.05741e-06ZM17.4136 23.4295C13.1728 23.4295 9.72289 20.2092 9.72289 16.2516C9.72289 12.2937 13.1732 9.07379 17.4136 9.07379C21.6539 9.07379 25.1043 12.294 25.1043 16.2516C25.1043 20.21 21.6539 23.4295 17.4136 23.4295Z" transform="translate(65.6064 138.495)" fill="#3E3430" fill-opacity="0.5"/>
<path d="M17.4136 1.05741e-06C7.81173 1.05741e-06 5.09835e-06 7.2908 5.09835e-06 16.2523C5.09835e-06 25.2139 7.81173 32.5047 17.4136 32.5047C27.0154 32.5047 34.8271 25.2139 34.8271 16.2523C34.8268 7.2908 27.015 1.05741e-06 17.4136 1.05741e-06ZM17.4136 23.4295C13.1728 23.4295 9.72289 20.2092 9.72289 16.2516C9.72289 12.2937 13.1732 9.07379 17.4136 9.07379C21.6543 9.07379 25.1043 12.294 25.1043 16.2516C25.1043 20.21 21.6539 23.4295 17.4136 23.4295Z" transform="translate(126.689 138.495)" fill="#3E3430" fill-opacity="0.5"/>
<path d="M195.812 32.7112C193.958 30.5874 191.211 29.3697 188.275 29.3697H36.846L33.7878 15.5139C33.1493 12.6236 31.0371 10.1967 28.1363 9.02111L6.79831 0.37682C4.33491 -0.621875 1.47203 0.433124 0.403522 2.73153C-0.666143 5.03066 0.464237 7.70299 2.92648 8.70024L24.2649 17.3449L47.7874 123.914C48.714 128.111 52.7189 131.157 57.3104 131.157H173.777C176.462 131.157 178.638 129.125 178.638 126.62C178.638 124.114 176.462 122.082 173.777 122.082H57.3108L54.4494 109.119H174.677C179.268 109.119 183.274 106.073 184.2 101.876L197.798 40.2741C198.39 37.5917 197.666 34.8345 195.812 32.7112ZM174.677 100.045H52.4466L38.8492 38.4438L188.275 38.4442L174.677 100.045Z" fill="#3E3430" fill-opacity="0.5"/>
</svg>
