<svg width="30" height="26" viewBox="0 0 30 26" fill="none" xmlns="http://www.w3.org/2000/svg">
<path d="M2.63842 1.60777e-07C1.18359 1.60777e-07 3.43323e-07 1.10855 3.43323e-07 2.47113C3.43323e-07 3.83371 1.18359 4.94226 2.63842 4.94226C4.09325 4.94226 5.27684 3.83371 5.27684 2.47113C5.27678 1.10855 4.09319 1.60777e-07 2.63842 1.60777e-07ZM2.63842 3.56239C1.99588 3.56239 1.47317 3.07276 1.47317 2.47102C1.47317 1.86922 1.99594 1.37965 2.63842 1.37965C3.2809 1.37965 3.80368 1.86928 3.80368 2.47102C3.80368 3.07287 3.2809 3.56239 2.63842 3.56239Z" transform="translate(9.94067 21.0579)" fill="#3E3430"/>
<path d="M2.63842 1.60777e-07C1.18359 1.60777e-07 7.72477e-07 1.10855 7.72477e-07 2.47113C7.72477e-07 3.83371 1.18359 4.94226 2.63842 4.94226C4.09325 4.94226 5.27684 3.83371 5.27684 2.47113C5.27678 1.10855 4.09319 1.60777e-07 2.63842 1.60777e-07ZM2.63842 3.56239C1.99588 3.56239 1.47317 3.07276 1.47317 2.47102C1.47317 1.86922 1.99594 1.37965 2.63842 1.37965C3.28096 1.37965 3.80367 1.86928 3.80367 2.47102C3.80367 3.07287 3.2809 3.56239 2.63842 3.56239Z" transform="translate(19.1953 21.0579)" fill="#3E3430"/>
<path d="M11.2922 2.67962e-07H0.736583C0.329766 2.67962e-07 1.28746e-07 0.308857 1.28746e-07 0.689879C1.28746e-07 1.0709 0.329825 1.37976 0.736583 1.37976H11.2922C11.699 1.37976 12.0288 1.0709 12.0288 0.689879C12.0288 0.308802 11.699 2.67962e-07 11.2922 2.67962e-07Z" transform="translate(11.1912 8.04736)" fill="#3E3430"/>
<path d="M10.1431 2.00971e-07H0.736583C0.329766 2.00971e-07 1.14441e-07 0.308857 1.14441e-07 0.689879C1.14441e-07 1.0709 0.329766 1.37976 0.736583 1.37976H10.1431C10.5499 1.37976 10.8796 1.0709 10.8796 0.689879C10.8796 0.308912 10.5499 2.00971e-07 10.1431 2.00971e-07Z" transform="translate(11.7659 11.6299)" fill="#3E3430"/>
<path d="M29.6685 4.97365C29.3876 4.65074 28.9713 4.46558 28.5265 4.46558H5.58273L5.11937 2.35885C5.02263 1.91938 4.70259 1.55038 4.26308 1.37164L1.03005 0.0572945C0.656804 -0.0945546 0.223034 0.0658555 0.0611397 0.415322C-0.100931 0.764899 0.0703389 1.17122 0.443406 1.32285L3.67649 2.63725L7.24052 18.8408C7.38091 19.4789 7.98771 19.9421 8.68339 19.9421H26.3299C26.7367 19.9421 27.0664 19.6332 27.0664 19.2522C27.0664 18.8712 26.7367 18.5623 26.3299 18.5623H8.68345L8.24992 16.5913H26.4663C27.1619 16.5913 27.7687 16.1281 27.9091 15.49L29.9694 6.12357C30.0591 5.71572 29.9494 5.2965 29.6685 4.97365ZM26.4663 15.2116H7.94646L5.88624 5.84529L28.5265 5.84534L26.4663 15.2116Z" fill="#3E3430"/>
</svg>
