<svg width="50" height="50" viewBox="0 0 50 50" fill="none" xmlns="http://www.w3.org/2000/svg">
<path d="M17.5164 4.33014L9.05745 12.7877C8.90914 12.936 8.82586 13.137 8.82586 13.3468C8.82586 13.4763 8.85769 13.6027 8.91694 13.7151V15.575C8.91694 16.0309 8.73932 16.4597 8.41696 16.782C8.09451 17.1044 7.6658 17.2819 7.20968 17.2819C6.75366 17.2819 6.32495 17.1043 6.0025 16.782C5.68004 16.4596 5.50252 16.0309 5.50252 15.575V14.1517C5.50252 13.715 5.14855 13.3612 4.71193 13.3612H3.28844C2.34711 13.3612 1.58119 12.5954 1.58119 11.6543C1.58119 10.713 2.34711 9.94728 3.28844 9.94728H5.14802C5.44666 10.1047 5.82477 10.0579 6.07597 9.80689L14.5347 1.3494C14.8434 1.04059 14.8434 0.540161 14.5347 0.231452C14.2259 -0.0771505 13.7253 -0.0771505 13.4167 0.231452L5.28063 8.36643H3.28844C1.47514 8.36643 0 9.84136 0 11.6544C0 13.4673 1.47514 14.9423 3.28844 14.9423H3.92134V15.5751C3.92134 16.4533 4.2634 17.279 4.88449 17.9C5.50569 18.5211 6.33149 18.8631 7.20978 18.863C8.08818 18.863 8.91398 18.521 9.53507 17.9C10.1562 17.279 10.4982 16.4533 10.4982 15.5751V13.5831L18.6345 5.44809C18.9432 5.13927 18.9432 4.63885 18.6345 4.33014C18.3256 4.02153 17.825 4.02153 17.5164 4.33014Z" transform="translate(0 31.1367)" fill="#3E3430"/>
<path d="M31.6124 4.39896C28.7752 1.5623 25.0031 0 20.9908 0C16.9784 0 13.2063 1.5623 10.3691 4.39896C5.47891 9.28844 0.247295 28.6019 0.0270882 29.4217C-0.0351051 29.6531 0.0110658 29.9002 0.152529 30.0935C0.293993 30.2869 0.515463 30.4057 0.754854 30.4165L2.51883 30.4963L2.74841 32.561C2.78931 32.9283 3.07941 33.2183 3.44688 33.2592L5.51148 33.4887L5.59107 35.2519C5.60182 35.4912 5.72062 35.7128 5.91405 35.8542C6.05098 35.9544 6.21479 36.0067 6.38092 36.0067C6.44944 36.0067 6.51849 35.9978 6.58605 35.9796C7.40595 35.7594 26.7221 30.5285 31.6124 25.6392C37.4692 19.7833 37.4692 10.255 31.6124 4.39896ZM30.4943 24.5213C26.4882 28.5269 11.118 33.0607 7.12587 34.1889L7.06051 32.7421C7.04302 32.3532 6.74491 32.035 6.35805 31.992L4.24991 31.7578L4.01558 29.6498C3.97257 29.263 3.65443 28.9651 3.26557 28.9475L1.81804 28.8821C2.94606 24.8908 7.47985 9.52348 11.4871 5.51691C14.0256 2.97884 17.4007 1.58096 20.9908 1.58096C24.5808 1.58096 27.9559 2.97884 30.4943 5.51702C35.7346 10.7565 35.7346 19.2818 30.4943 24.5213Z" transform="translate(13.9949)" fill="#3E3430"/>
<path d="M1.34928 1.34898C1.6575 1.0408 1.6575 0.539318 1.34928 0.231136C1.04105 -0.0770452 0.539501 -0.0770452 0.23117 0.231136C-0.0770559 0.539318 -0.0770559 1.0408 0.23117 1.34898C0.539501 1.65716 1.04105 1.65716 1.34928 1.34898Z" transform="translate(27.4497 7.48462)" fill="#3E3430"/>
<path d="M0.231169 0.231174C-0.0770565 0.539356 -0.0770565 1.04084 0.231169 1.34912C0.539395 1.65731 1.04095 1.65731 1.34928 1.34912C1.6575 1.04094 1.6575 0.539356 1.34928 0.231174C1.04105 -0.0770071 0.539395 -0.0771125 0.231169 0.231174Z" transform="translate(27.8228 26.8613)" fill="#3E3430"/>
<path d="M0.231168 0.231215C-0.0770577 0.539396 -0.0770577 1.04088 0.231168 1.34906C0.539394 1.65724 1.04095 1.65724 1.34928 1.34906C1.65751 1.04088 1.65751 0.539396 1.34928 0.231215C1.04105 -0.0770719 0.539499 -0.0770719 0.231168 0.231215Z" transform="translate(28.1206 11.2852)" fill="#3E3430"/>
<path d="M0.231169 0.231136C-0.0770572 0.539317 -0.0770572 1.0408 0.231169 1.34908C0.539394 1.65727 1.04095 1.65727 1.34928 1.34908C1.6575 1.0409 1.6575 0.539317 1.34928 0.231136C1.04105 -0.0770455 0.539394 -0.0770455 0.231169 0.231136Z" transform="translate(34.1956 4.70239)" fill="#3E3430"/>
</svg>
