<svg width="23" height="22" viewBox="0 0 23 22" fill="none" xmlns="http://www.w3.org/2000/svg">
<path fill-rule="evenodd" clip-rule="evenodd" d="M11.4973 11.7407L21.9016 21.8169C22.1536 22.061 22.5588 22.061 22.8108 21.8169C23.0637 21.5723 23.0637 21.1807 22.8108 20.936L12.552 11.0005L22.8108 1.06494C23.0637 0.820801 23.0637 0.428711 22.8108 0.18457C22.6868 0.0644531 22.5208 0 22.3586 0C22.1965 0 22.0305 0.0600586 21.9065 0.18457L11.5032 10.2593L1.09888 0.183105C0.846924 -0.0610352 0.44165 -0.0610352 0.189697 0.183105C-0.0632324 0.427734 -0.0632324 0.819336 0.189697 1.06396L10.4485 10.9995L0.189697 20.9351C-0.0632324 21.1792 -0.0632324 21.5713 0.189697 21.8154C0.313721 21.9355 0.479736 22 0.641846 22C0.803955 22 0.969971 21.9399 1.09399 21.8154L11.4973 11.7407Z" fill="#3E3430" fill-opacity="0.5"/>
</svg>
