<svg width="60" height="29" viewBox="0 0 60 29" fill="none" xmlns="http://www.w3.org/2000/svg">
<path d="M-1.01805e-07 -1.31119e-06C0.000476464 0.000237383 0.0011913 0.000237121 0.00166787 0.000475815C0.000953021 0.000237121 0.000476464 -1.31119e-06 -1.01805e-07 -1.31119e-06Z" transform="translate(5.19702 13.3042)" fill="#3E3430"/>
<path d="M0.881255 -1.40831e-08C0.394572 -1.40831e-08 8.15396e-07 0.388332 8.15396e-07 0.867574V4.25757C8.15396e-07 4.7367 0.394455 5.12514 0.881255 5.12514C1.36805 5.12514 1.76251 4.7367 1.76251 4.25757V0.867574C1.76251 0.388447 1.36805 -1.40831e-08 0.881255 -1.40831e-08Z" transform="translate(20.4236 3.35596)" fill="#3E3430"/>
<path d="M2.02623 0.0311512C1.55665 -0.0956391 1.07208 0.176055 0.943174 0.638107L0.0316844 3.9072C-0.0972226 4.36925 0.178873 4.84653 0.648212 4.97344C0.726376 4.99455 0.804657 5.00459 0.881884 5.00459C1.26896 5.00459 1.6238 4.7517 1.73126 4.36648L2.64275 1.09739C2.77166 0.635338 2.49556 0.158057 2.02623 0.0311512Z" transform="translate(24.4514 4.25684)" fill="#3E3430"/>
<path d="M2.64283 3.90731L1.73122 0.638219C1.60243 0.176282 1.11774 -0.0958731 0.648171 0.0312633C0.178832 0.158169 -0.0971463 0.63545 0.0316435 1.0975L0.943249 4.36659C1.05071 4.75181 1.40556 5.0047 1.79263 5.0047C1.86974 5.0047 1.94837 4.99466 2.0263 4.97355C2.49564 4.84664 2.77162 4.36936 2.64283 3.90731Z" transform="translate(15.4839 4.25684)" fill="#3E3430"/>
<path d="M59.7207 21.7201C59.2954 20.7209 58.4106 19.907 57.354 19.543C56.689 19.3137 55.9996 19.2704 55.3341 19.4126C54.9423 18.1057 54.0614 15.993 53.9063 15.687C53.1545 14.2052 52.1873 12.8398 51.0316 11.6288C49.0657 9.56877 46.5941 8.01095 43.8837 7.12399C42.4975 6.67036 41.0377 6.39083 39.545 6.29322C38.1317 6.20093 36.8488 6.30811 35.2538 6.65213C35.1106 6.68294 34.9678 6.71582 34.8253 6.75043C34.4564 6.2705 34.063 5.80787 33.6424 5.36716C31.6765 3.30713 29.2049 1.74931 26.4945 0.862351C25.1083 0.408721 23.6485 0.129182 22.1556 0.0315797C20.7426 -0.0607154 19.4593 0.0464631 17.8646 0.390493C16.7601 0.628499 15.6747 0.976104 14.6385 1.4235C13.1912 2.04846 11.8327 2.87092 10.6004 3.86852C10.2245 4.17286 10.1703 4.71959 10.4795 5.08958C10.7886 5.4598 11.3439 5.51275 11.7198 5.20864C12.827 4.31223 14.0472 3.57329 15.3464 3.01236C16.2763 2.61088 17.2503 2.29904 18.2416 2.08526C19.6839 1.77434 20.7838 1.68066 22.0389 1.7628C23.3824 1.85071 24.6944 2.10164 25.9385 2.5089C28.3719 3.30529 30.5918 4.70448 32.358 6.55523C32.5867 6.79485 32.8061 7.04197 33.0175 7.29497C32.6835 7.41542 32.3529 7.54486 32.0277 7.68526C29.4235 8.80965 27.1157 10.5726 25.3541 12.7834C24.4716 13.8907 23.7311 15.1021 23.1533 16.384C23.0378 16.6402 22.4019 18.3111 22.0776 19.42C20.5926 19.1114 18.9285 19.7416 18.0536 20.9413C14.5484 20.79 11.1302 20.4684 7.68325 19.9615L7.56513 19.9442C5.64453 19.6624 2.74201 19.2365 1.9442 17.5714C1.69142 17.0438 1.70033 16.4176 1.96822 15.8966C2.39514 15.066 3.65667 14.5931 4.56347 14.9237C4.56581 14.9245 4.57531 14.928 4.57753 14.9288L4.58995 14.9332C4.93484 15.0583 5.31804 15.0308 5.64137 14.8577C5.96457 14.6848 6.19637 14.3831 6.27735 14.0301C6.47739 13.1594 7.26009 11.0824 7.37505 10.8261C7.65056 10.2154 7.97072 9.61573 8.32662 9.04385C8.58092 8.63544 8.4506 8.10117 8.03576 7.85093C7.62103 7.60047 7.07833 7.72876 6.82403 8.13728C6.42758 8.774 6.0711 9.44187 5.7643 10.1222C5.64887 10.3784 5.01289 12.0493 4.68863 13.1582C3.03358 12.8143 1.15517 13.6361 0.395789 15.1134C-0.115386 16.1081 -0.132378 17.3037 0.350437 18.3118C1.55033 20.8158 5.01371 21.3242 7.30544 21.6605L7.4231 21.6778C10.7455 22.1662 14.0407 22.4867 17.4096 22.6501C17.3427 23.3031 17.4514 23.9716 17.7398 24.5735C18.9396 27.0776 22.403 27.5859 24.6948 27.9222L24.8124 27.9395C28.1579 28.4313 31.428 28.7501 34.8096 28.9141C35.2947 28.9356 35.709 28.5686 35.7331 28.0901C35.757 27.6115 35.3823 27.2046 34.8961 27.181C31.5732 27.02 28.3601 26.7068 25.0727 26.2234L24.9547 26.2061C23.034 25.9243 20.1316 25.4983 19.3338 23.8333C19.081 23.3057 19.0899 22.6795 19.3578 22.1585C19.7847 21.3279 21.0461 20.8551 21.953 21.1856C21.9554 21.1864 21.9649 21.1899 21.967 21.1907L21.9794 21.1951C22.3242 21.32 22.7076 21.2928 23.0308 21.1196C23.354 20.9467 23.5858 20.645 23.6668 20.292C23.8668 19.4213 24.6495 17.3443 24.7646 17.0879C25.2835 15.937 25.9484 14.8491 26.741 13.8545C28.3241 11.868 30.397 10.2842 32.7361 9.27424C33.666 8.87275 34.64 8.56091 35.6312 8.34713C37.074 8.03621 38.1742 7.94254 39.4286 8.02468C40.772 8.11259 42.0841 8.36352 43.3281 8.77077C45.7616 9.56716 47.9815 10.9664 49.7477 12.8171C50.7859 13.9053 51.6548 15.1317 52.3298 16.4623C52.477 16.7552 53.529 19.3142 53.7457 20.2802C53.825 20.6343 54.0561 20.9372 54.3802 21.1113C54.7027 21.2847 55.0849 21.3132 55.4291 21.1898C55.433 21.1884 55.437 21.1871 55.4408 21.1856C55.9812 20.9887 56.4631 21.0744 56.7727 21.181C57.3657 21.3852 57.8603 21.8376 58.0957 22.3908C58.2364 22.7213 58.3444 23.2399 58.06 23.8333C57.2622 25.4983 54.3597 25.9243 52.4389 26.2061L52.3211 26.2234C48.3108 26.8131 44.3654 27.1539 40.2593 27.2653C39.7729 27.2786 39.3893 27.6775 39.4028 28.1564C39.4161 28.6272 39.8077 29 40.2832 29C40.2914 29 40.2998 28.9999 40.3081 28.9997C44.4856 28.8862 48.5002 28.5394 52.5814 27.9394L52.6989 27.9221C54.9907 27.5858 58.4543 27.0776 59.654 24.5733C60.0911 23.6598 60.1149 22.6466 59.7207 21.7201Z" fill="#3E3430"/>
<path d="M0.881256 9.85818e-08C0.394456 9.85818e-08 -1.74523e-06 0.388332 -1.74523e-06 0.867574V4.25757C-1.74523e-06 4.7367 0.394456 5.12514 0.881256 5.12514C1.36806 5.12514 1.76251 4.73681 1.76251 4.25757V0.867574C1.76251 0.388447 1.36806 9.85818e-08 0.881256 9.85818e-08Z" transform="translate(37.8127 9.61768)" fill="#3E3430"/>
<path d="M2.02619 0.0311922C1.55661 -0.0957135 1.07204 0.176096 0.943133 0.638148L0.0316447 3.90724C-0.0971451 4.36929 0.178832 4.84657 0.64817 4.97348C0.726335 4.99447 0.804733 5.00463 0.88196 5.00463C1.26892 5.00463 1.62388 4.75174 1.73122 4.36652L2.64271 1.09743C2.7715 0.635379 2.49553 0.158098 2.02619 0.0311922Z" transform="translate(41.8406 10.5186)" fill="#3E3430"/>
<path d="M2.64283 3.90727L1.73122 0.63818C1.60243 0.176243 1.11774 -0.0957969 0.648172 0.0312242C0.178833 0.15813 -0.0971471 0.635411 0.0316427 1.09746L0.943249 4.36655C1.05071 4.75177 1.40556 5.00466 1.79251 5.00466C1.86962 5.00466 1.94825 4.99462 2.0263 4.97351C2.49564 4.8466 2.77162 4.36932 2.64283 3.90727Z" transform="translate(32.873 10.5186)" fill="#3E3430"/>
</svg>
