<svg width="50" height="37" viewBox="0 0 50 37" fill="none" xmlns="http://www.w3.org/2000/svg">
<path d="M45.5569 18.5002C46.381 17.8021 47.1101 17.0017 47.7319 16.1112C49.802 13.1473 50.4982 9.42942 49.6421 5.91068C49.5471 5.52043 49.1784 5.2619 48.7795 5.30509C45.1883 5.70238 41.9416 7.62995 39.8718 10.5934C39.5082 11.1138 39.1845 11.6618 38.9034 12.2312C36.0875 9.5124 32.6896 7.50932 28.9664 6.37334C29.9447 4.87538 30.5983 3.17371 30.8734 1.39077C30.9347 0.993591 30.6924 0.612515 30.3075 0.500315C26.8383 -0.510129 23.1028 0.0250634 20.0592 1.96895C18.4529 2.99475 17.1367 4.33102 16.1427 5.94438C9.33399 7.52916 3.50051 11.9485 0.0996574 18.1129C-0.0332191 18.3538 -0.0332191 18.6463 0.0996574 18.8872C3.50051 25.0516 9.33399 29.4708 16.1426 31.0556C17.1367 32.669 18.4529 34.0053 20.0591 35.0311C22.093 36.3302 24.4356 37.0001 26.8017 37C27.9761 37 29.1565 36.8349 30.3074 36.4997C30.6923 36.3875 30.9347 36.0064 30.8733 35.6092C30.5374 33.4324 29.6375 31.3769 28.2709 29.6651C27.9954 29.3201 27.4932 29.2641 27.1493 29.5404C26.8054 29.8164 26.7496 30.3198 27.025 30.6647C28.0677 31.9708 28.7991 33.5065 29.1625 35.1424C26.3377 35.7668 23.3695 35.2485 20.9164 33.6819C19.4279 32.7312 18.225 31.4753 17.3413 29.9489C17.2287 29.7544 17.0398 29.6165 16.8206 29.5687C10.4603 28.1829 4.97843 24.1597 1.7145 18.5002C4.97853 12.8407 10.4603 8.81744 16.8206 7.43157C17.0398 7.38379 17.2287 7.24588 17.3413 7.05145C18.2251 5.52502 19.4279 4.26916 20.9164 3.31844C23.3696 1.7519 26.3377 1.23335 29.1625 1.85792C28.7991 3.49389 28.0677 5.0295 27.025 6.33559C26.8554 6.54794 26.8052 6.83207 26.8915 7.08996C26.9778 7.34785 27.1889 7.54398 27.452 7.61086C31.7053 8.69126 35.5546 10.9633 38.5836 14.1812C38.7723 14.3816 39.0507 14.4702 39.3201 14.4167C39.5896 14.3627 39.8126 14.1735 39.9101 13.9158C40.232 13.0648 40.6589 12.2559 41.1789 11.5113C42.8472 9.12279 45.3915 7.50537 48.2398 6.99855C48.739 9.85486 48.0931 12.8049 46.4247 15.1938C45.7043 16.2254 44.819 17.1183 43.7938 17.848C43.583 17.9979 43.4577 18.2411 43.4577 18.5003C43.4577 18.7594 43.5829 19.0025 43.7937 19.1525C44.8193 19.8824 45.7044 20.7755 46.4247 21.807C48.0931 24.1957 48.739 27.1459 48.2398 30.0021C45.3916 29.4954 42.8473 27.878 41.1789 25.4894C40.6586 24.7447 40.2319 23.9356 39.9101 23.0848C39.8127 22.8271 39.5897 22.6379 39.3203 22.584C39.0507 22.5303 38.7725 22.619 38.5836 22.8193C36.3508 25.1915 33.7048 27.033 30.7192 28.2923C30.3132 28.4636 30.1224 28.9327 30.2933 29.3399C30.4641 29.7471 30.9318 29.9381 31.3382 29.7669C34.1626 28.5754 36.7025 26.8971 38.9034 24.7694C39.1844 25.3388 39.5081 25.8866 39.8717 26.407C41.9416 29.3706 45.1884 31.298 48.7794 31.6951C49.1799 31.739 49.5472 31.4799 49.642 31.0895C50.4981 27.571 49.8019 23.8531 47.7318 20.8892C47.1102 19.9987 46.3811 19.1982 45.5569 18.5002Z" transform="translate(50 37) rotate(180)" fill="#3E3430"/>
<path d="M6.98841 10.8413C6.99788 10.8271 7.0082 10.8138 7.01692 10.7988C7.02894 10.7778 7.03948 10.7565 7.04948 10.735C7.64003 9.68976 7.97897 8.48371 7.97897 7.19917C7.97897 5.91462 7.64003 4.70858 7.04948 3.66336C7.03948 3.64193 7.02894 3.62049 7.01692 3.59958C7.00543 3.57975 6.99288 3.56098 6.98011 3.54242C5.72869 1.42416 3.4266 -2.86425e-07 0.797897 -2.86425e-07C0.357138 -2.86425e-07 -6.75304e-07 0.358038 -6.75304e-07 0.799907V13.5984C-6.75304e-07 14.0403 0.357138 14.3983 0.797897 14.3983C3.43255 14.3984 5.7389 12.9677 6.98841 10.8413ZM6.38307 7.19928C6.38307 7.93317 6.24041 8.63399 5.98317 9.2769L2.39358 7.19928L5.98317 5.12165C6.24041 5.76445 6.38307 6.46528 6.38307 7.19928ZM5.18367 3.73706L1.59579 5.81373V1.65677C3.04509 1.8656 4.31599 2.63479 5.18367 3.73706ZM1.59569 12.7416V8.58461L5.18357 10.6613C4.31599 11.7637 3.04509 12.5328 1.59569 12.7416Z" transform="translate(22.0781 25.6992) rotate(180)" fill="#3E3430"/>
<path d="M6.98107 3.54423C5.72986 1.4249 3.42734 4.68696e-07 0.797897 4.68696e-07C0.357139 4.68696e-07 -2.46746e-07 0.358039 -2.46746e-07 0.799908V13.5984C-2.46746e-07 14.0403 0.357139 14.3983 0.797897 14.3983C3.43309 14.3983 5.73976 12.967 6.98905 10.8401C6.9982 10.8263 7.00841 10.8134 7.01682 10.7988C7.02852 10.7784 7.03873 10.7576 7.04852 10.7367C7.6396 9.69115 7.97897 8.48446 7.97897 7.19917C7.97897 5.91388 7.63971 4.7073 7.04852 3.66166C7.03873 3.64075 7.02852 3.61996 7.01682 3.59959C7.00565 3.58028 6.99341 3.56215 6.98107 3.54423ZM6.38307 7.19917C6.38307 7.93317 6.24041 8.63399 5.98317 9.2768L2.39359 7.19917L5.98317 5.12154C6.24041 5.76435 6.38307 6.46517 6.38307 7.19917ZM5.18367 3.73696L1.59579 5.81373V1.65677C3.0451 1.86549 4.31599 2.63468 5.18367 3.73696ZM1.59569 12.7415V8.5845L5.18357 10.6613C4.31599 11.7635 3.0451 12.5327 1.59569 12.7415Z" transform="translate(32.5227 25.6992) rotate(180)" fill="#3E3430"/>
<path d="M0.797897 3.19963C0.357139 3.19963 -3.44145e-07 3.55767 -3.44145e-07 3.99954C-3.44145e-07 4.44141 0.357139 4.79945 0.797897 4.79945C2.11773 4.79945 3.19159 3.72288 3.19159 2.39972C3.19159 1.07657 2.11773 -4.03599e-07 0.797897 -4.03599e-07C0.357139 -4.03599e-07 -3.44145e-07 0.358038 -3.44145e-07 0.799907C-3.44145e-07 1.24178 0.357139 1.59982 0.797897 1.59982C1.23791 1.59982 1.59579 1.9586 1.59579 2.39972C1.59579 2.84085 1.23791 3.19963 0.797897 3.19963Z" transform="translate(38.2319 20.8999) rotate(180)" fill="#3E3430"/>
</svg>
