<svg width="16" height="20" viewBox="0 0 16 20" fill="none" xmlns="http://www.w3.org/2000/svg">
<path d="M0.241447 1.90063C0.279135 1.9133 0.317889 1.91929 0.355577 1.91929C0.503841 1.91929 0.64215 1.82707 0.692282 1.6803C0.803568 1.3572 1.15947 1.18368 1.48586 1.29314C2.18345 1.52685 2.94468 1.15623 3.18111 0.465326C3.2444 0.281601 3.14485 0.0813339 2.9589 0.0186844C2.77223 -0.0436131 2.57099 0.0549364 2.50771 0.239013C2.39678 0.562468 2.04087 0.735986 1.71413 0.626173C1.01761 0.393525 0.255669 0.763438 0.0188745 1.45399C-0.0440574 1.63772 0.0554957 1.83798 0.241447 1.90063Z" transform="translate(10.5537 7.0069)" fill="white"/>
<path d="M0.241406 1.90139C0.279094 1.91406 0.317848 1.92005 0.355536 1.92005C0.5038 1.92005 0.642107 1.82783 0.692239 1.68106C0.745927 1.52444 0.857925 1.39773 1.00797 1.32453C1.15801 1.25132 1.3276 1.24076 1.48582 1.2939C2.18341 1.52761 2.94428 1.15699 3.18107 0.465735C3.24436 0.28201 3.14445 0.0817429 2.95886 0.0190935C2.7729 -0.0442599 2.57095 0.0553458 2.50802 0.239423C2.39709 0.563229 2.0419 0.736747 1.71444 0.626934C1.37596 0.51325 1.01365 0.536479 0.693662 0.693103C0.373669 0.849375 0.134031 1.12003 0.0191887 1.45475C-0.0444543 1.63883 0.0554546 1.83874 0.241406 1.90139Z" transform="translate(11.395 4.55371)" fill="white"/>
<path d="M0.24113 1.69817C0.279173 1.71084 0.317573 1.71683 0.355617 1.71683C0.50388 1.71683 0.642187 1.62461 0.69232 1.47785C0.774096 1.23921 1.03756 1.11075 1.27826 1.1917C1.57514 1.2913 1.89336 1.27089 2.1746 1.13398C2.45548 0.996711 2.66561 0.759488 2.76658 0.465598C2.82987 0.281874 2.73032 0.0816064 2.54437 0.018957C2.3577 -0.0440445 2.15646 0.0552093 2.09318 0.239286C2.05336 0.355082 1.97051 0.448704 1.85994 0.502555C1.74936 0.556405 1.62421 0.5645 1.50688 0.524728C0.894626 0.320238 0.226552 0.645452 0.0189123 1.25118C-0.0440196 1.43561 0.0551782 1.63552 0.24113 1.69817Z" transform="translate(12.2358 2.30438)" fill="white"/>
<path d="M15.0525 8.88148C14.9907 8.8396 14.921 8.81566 14.8499 8.80651C15.5563 6.53388 15.9439 4.30736 15.9993 2.18679C16.0168 1.51981 15.6875 0.629348 15.0237 0.217199C14.7052 0.0190436 14.1832 -0.144267 13.5055 0.201009C12.4435 0.743384 11.6841 2.33883 11.0739 3.62139C11.0387 3.6953 11.0043 3.76745 10.9701 3.8389C10.8354 3.22543 10.4258 2.70065 9.84339 2.42682C9.70615 1.77358 9.18279 1.26183 8.52502 1.12914C8.51791 1.09253 8.50902 1.05663 8.498 1.02038C8.36254 0.562123 7.95401 0.217199 7.48149 0.161589C7.21519 0.130264 6.95137 0.184818 6.72595 0.315397C6.53396 0.209456 6.31849 0.153142 6.09734 0.153142C5.47905 0.153142 4.95959 0.580073 4.82413 1.15131C4.14823 1.33363 3.6526 1.9478 3.64727 2.66158C2.87608 2.85868 2.31432 3.54853 2.31432 4.36896C2.31432 4.58647 2.35556 4.80187 2.43485 5.00496C2.23468 5.24957 2.12375 5.55578 2.12375 5.87712C2.12375 6.07 2.16392 6.25583 2.23965 6.42759C1.88446 6.04395 1.38456 5.73035 0.823153 5.75077C0.62689 5.7571 0.472583 5.91936 0.478627 6.11364C0.484671 6.30405 0.642534 6.45469 0.833819 6.45469C0.845908 6.45504 0.85693 6.45399 0.868307 6.45399C1.20146 6.45399 1.51114 6.67221 1.73655 6.92562C1.17266 7.08647 0.492849 7.34833 0.1757 7.94033C-0.0152287 8.29757 -0.0376281 8.73577 0.0896579 9.23767C0.0281482 9.33938 -0.0056288 9.45764 0.000771055 9.58365L0.605913 18.0966C0.661023 19.1641 1.54989 20 2.62933 20H12.6099C13.6894 20 14.5782 19.1641 14.633 18.1029L15.2534 9.29398C15.2534 9.29187 15.2538 9.28976 15.2538 9.28765C15.2637 9.12539 15.188 8.97369 15.0525 8.88148ZM11.2603 4.84552C11.401 4.58542 11.5546 4.26302 11.7171 3.92126C12.2515 2.79779 12.9839 1.25936 13.8312 0.826447C14.1405 0.668768 14.4068 0.6656 14.6458 0.813073C15.0579 1.0693 15.3003 1.71586 15.2886 2.16848C15.2342 4.24929 14.8502 6.43921 14.1469 8.67769C14.1238 8.75125 14.0726 8.89978 13.9997 9.10357L13.3939 9.37C13.3807 9.37599 13.3679 9.38232 13.3555 9.39007C13.1806 9.4939 12.9843 9.54528 12.788 9.54739C12.5918 9.54528 12.3959 9.4939 12.2209 9.39007L11.9674 9.23943C11.6759 9.06626 11.3491 8.97968 11.0224 8.97968C11.0185 8.97968 11.0146 8.98038 11.0103 8.98038C10.6796 8.97827 10.3483 9.0638 10.0532 9.23943L9.80002 9.39007C9.65886 9.47383 9.50278 9.51466 9.34492 9.53226C9.3538 9.50164 9.36411 9.47172 9.37336 9.44145C9.47078 9.11378 9.57531 8.79067 9.68482 8.47003C9.72642 8.34826 9.76979 8.22718 9.81317 8.10646C9.90455 7.85199 10.0002 7.60068 10.099 7.35114C10.1431 7.23957 10.1861 7.12694 10.2317 7.01643C10.5417 6.2678 10.8837 5.5417 11.2603 4.84552ZM6.72773 5.68037C6.76933 5.62758 6.80986 5.57619 6.84826 5.52621C6.84826 5.52551 6.84862 5.52516 6.84897 5.52481C6.87706 5.48785 6.90159 5.44948 6.92221 5.41112C7.00968 5.24816 7.0303 5.06514 6.98977 4.88634L8.47382 4.565C8.48378 4.61005 8.49445 4.65475 8.51151 4.69628C8.578 4.85748 8.69675 4.99158 8.86208 5.0852C8.91613 5.11477 8.97266 5.14433 9.03097 5.17495C9.07897 5.19994 9.12696 5.22599 9.17532 5.25203C9.19843 5.26435 9.2219 5.27667 9.24501 5.28934C9.28732 5.31292 9.32821 5.33897 9.36945 5.36466C9.40465 5.38613 9.43949 5.40831 9.47362 5.43189C9.51309 5.45899 9.55078 5.4889 9.58846 5.51917C9.62153 5.54592 9.65318 5.57514 9.68446 5.60505C9.71824 5.63779 9.75166 5.67122 9.78259 5.70783C9.83735 5.77259 9.88997 5.83981 9.93299 5.92041C9.78224 6.24985 9.64038 6.58597 9.50313 6.92491C9.4818 6.97736 9.45905 7.02839 9.43807 7.08083C9.04839 7.17868 8.67186 7.3617 8.20681 7.68938C7.62087 8.10153 7.18461 8.21099 6.46569 8.10786L6.24987 7.12976C6.10339 6.46842 6.42089 6.06788 6.72773 5.68037ZM8.49089 3.5429C8.50013 3.54114 8.50938 3.54008 8.51862 3.54008C8.58582 3.54008 8.64875 3.5876 8.66333 3.65447C8.67471 3.70516 8.65551 3.74493 8.64271 3.76428C8.63027 3.78329 8.60218 3.81673 8.55133 3.82764L6.58729 4.25316C6.50907 4.27006 6.42943 4.21867 6.41236 4.14194C6.39529 4.06486 6.44685 3.98567 6.52471 3.96878L7.56824 3.74282L8.49089 3.5429ZM7.34176 8.98672C7.31474 8.98848 7.28736 8.98918 7.26034 8.992C7.06657 9.01135 6.87528 9.05993 6.6936 9.14088L6.62569 8.83291C6.72809 8.84136 6.83013 8.8498 6.92577 8.8498C7.54585 8.8498 8.04503 8.66713 8.61889 8.26308C8.79951 8.13567 8.9595 8.03923 9.11168 7.95934C9.07897 8.0512 9.04661 8.14271 9.01497 8.23492C8.99221 8.30109 8.96768 8.36621 8.94564 8.43273C8.8411 8.74597 8.74155 9.06168 8.64875 9.38021L8.41231 9.24013C8.12077 9.06696 7.79402 8.98038 7.46727 8.98038C7.463 8.98038 7.45838 8.98108 7.45411 8.98108C7.41643 8.98038 7.37909 8.9846 7.34176 8.98672ZM3.08906 5.34706L3.32194 5.157L3.17083 4.89901C3.07626 4.73711 3.02612 4.55409 3.02612 4.36896C3.02612 3.79878 3.47731 3.33383 4.0533 3.3099L4.48494 3.29195L4.38432 2.87593C4.36725 2.80624 4.35872 2.73761 4.35872 2.67249C4.35872 2.21917 4.7164 1.83729 5.17292 1.80279L5.50145 1.77816V1.42795C5.51176 1.11154 5.77522 0.857068 6.0977 0.857068C6.2833 0.857068 6.41627 0.940835 6.49485 1.01123L6.74409 1.23402L6.98301 1.00032C7.09252 0.89332 7.24292 0.843342 7.39794 0.86094C7.58851 0.883114 7.7606 1.03023 7.81606 1.21924C7.83491 1.28259 7.84024 1.34383 7.83277 1.40613L7.79117 1.79927H8.19152C8.70244 1.79927 9.12981 2.19453 9.16501 2.69924L9.18101 2.93048L9.4018 3.00721C9.95752 3.20044 10.323 3.72099 10.3106 4.30349C10.3053 4.55233 10.2242 4.79202 10.0773 5.00214C9.83948 4.80222 9.58313 4.66742 9.36767 4.55515C9.31185 4.52593 9.25781 4.49778 9.20341 4.46786C9.18812 4.45941 9.16963 4.44463 9.16323 4.40767C9.1547 4.35699 9.1739 4.2961 9.21265 4.2514C9.36767 4.07331 9.42989 3.83045 9.37976 3.60133L9.33674 3.40739C9.29372 3.2117 9.17567 3.04452 9.00501 2.93612C8.8347 2.82806 8.63204 2.79181 8.43471 2.83475L8.33943 2.85552C8.33836 2.85587 8.33729 2.85552 8.33623 2.85587L7.2927 3.08183L6.27441 3.30181C6.07708 3.34439 5.90819 3.46089 5.79868 3.63019C5.68918 3.79878 5.65291 3.99975 5.69593 4.19509L5.71726 4.29082C5.71726 4.29117 5.71726 4.29153 5.71726 4.29188C5.71726 4.29223 5.71762 4.29258 5.71762 4.29329L5.7386 4.38867C5.79015 4.62308 5.95477 4.82053 6.17841 4.91556C6.23387 4.93914 6.2801 4.98384 6.2961 5.02924C6.30534 5.05529 6.30001 5.06866 6.27938 5.10245C6.27938 5.10245 6.27938 5.10245 6.27938 5.1028C6.24419 5.14961 6.20614 5.19713 6.16739 5.24605C6.12828 5.29533 6.08774 5.34706 6.0465 5.40056C6.03263 5.41851 6.01948 5.43717 6.00561 5.45547C5.9761 5.49524 5.94659 5.53572 5.91744 5.57795C5.90144 5.60083 5.88615 5.62441 5.8705 5.64834C5.84348 5.68952 5.81753 5.73211 5.79193 5.77575C5.777 5.8011 5.76242 5.82609 5.7482 5.85248C5.72153 5.90176 5.69735 5.9535 5.67353 6.00629C5.66322 6.02882 5.6522 6.05029 5.64295 6.07387C5.61167 6.1506 5.58393 6.23084 5.56189 6.31532C5.55833 6.32869 5.55691 6.34312 5.55371 6.35685C5.53665 6.42865 5.52278 6.50291 5.51389 6.58034C5.51034 6.61132 5.50962 6.6437 5.50749 6.67572C5.50465 6.71726 5.49931 6.75668 5.49931 6.79997C5.49789 6.79821 5.49647 6.79645 5.49505 6.79469C5.49007 6.78835 5.48509 6.78272 5.48047 6.77639C5.4186 6.69579 5.35674 6.62152 5.29452 6.55113C5.27496 6.52896 5.25505 6.50749 5.23514 6.48637C5.18288 6.43041 5.13061 6.37796 5.07799 6.32869C5.06092 6.31285 5.04386 6.29561 5.02644 6.28012C4.95995 6.22134 4.89311 6.16749 4.82591 6.11962C4.80706 6.10625 4.78786 6.09499 4.76902 6.08232C4.71853 6.04888 4.66804 6.01791 4.61684 5.99045C4.59196 5.97708 4.56742 5.96406 4.54218 5.95209C4.4892 5.9264 4.43587 5.90457 4.38218 5.88557C4.36441 5.87923 4.34663 5.87079 4.32885 5.86515C4.27054 5.84685 4.21188 5.83207 4.15285 5.82116C4.1461 5.81975 4.13934 5.82045 4.13259 5.8194C4.1205 5.81729 4.10877 5.81271 4.09668 5.81095C4.05543 5.80497 4.01632 5.80743 3.97579 5.80462C3.94735 5.80286 3.91926 5.79687 3.89082 5.79687C3.88228 5.79687 3.87339 5.79898 3.86451 5.79898C3.8094 5.79969 3.75606 5.80602 3.70238 5.81271C3.67571 5.81623 3.64904 5.81834 3.62238 5.82327C3.55234 5.83594 3.48443 5.85354 3.41723 5.87466C3.40692 5.87782 3.39696 5.88029 3.38665 5.88381C3.20959 5.94329 3.04177 6.02741 2.88462 6.12913C2.85226 6.04993 2.8352 5.96476 2.8352 5.87712C2.83555 5.67122 2.92799 5.47799 3.08906 5.34706ZM0.804664 8.26941C0.955061 7.9889 1.32021 7.77491 1.95415 7.59541C2.25068 7.51164 2.52587 7.35501 2.74915 7.14384C2.85048 7.04775 2.94542 6.96645 3.03715 6.89253C3.32372 6.662 3.57082 6.5367 3.79446 6.50819C3.79944 6.50749 3.80442 6.50678 3.8094 6.50643C3.88015 6.49869 3.94877 6.5008 4.01526 6.51241C4.03268 6.51558 4.05046 6.52157 4.06823 6.52614C4.1013 6.53424 4.13401 6.54233 4.16708 6.55535C4.18841 6.56345 4.20974 6.57577 4.23143 6.58562C4.26236 6.60041 4.29294 6.61378 4.32387 6.63243C4.34805 6.64686 4.37223 6.66552 4.3964 6.68206C4.4252 6.70212 4.454 6.72042 4.48316 6.74365C4.51018 6.76512 4.5372 6.79117 4.56422 6.81545C4.59125 6.83974 4.61827 6.86191 4.64529 6.88902C4.67515 6.91893 4.70538 6.95378 4.7356 6.98721C4.76013 7.01431 4.78466 7.0393 4.80955 7.06852C4.84333 7.10864 4.87746 7.1544 4.91159 7.19874C4.93328 7.2269 4.95461 7.25224 4.9763 7.28216C5.01506 7.33566 5.05417 7.39514 5.09328 7.45427C5.11034 7.48031 5.12777 7.50354 5.14483 7.53029C5.20136 7.61864 5.25825 7.71261 5.3155 7.81257C5.57718 8.26977 5.66393 8.94518 5.55016 9.53332C5.53131 9.53156 5.51282 9.52874 5.49398 9.52592C5.35852 9.50305 5.22803 9.46011 5.10928 9.38971L4.85577 9.23907C4.56422 9.06591 4.23748 8.97932 3.91073 8.97932C3.90682 8.97932 3.9029 8.98003 3.89864 8.98003C3.56798 8.97792 3.23661 9.06344 2.9415 9.23907L2.81813 9.31228C2.60302 9.44005 2.36196 9.50445 2.1209 9.50657C1.87948 9.50445 1.63878 9.4404 1.42367 9.31228L0.945461 9.0279C0.945461 9.0279 0.945105 9.0279 0.945105 9.02754C0.882173 8.99059 0.814264 8.96525 0.744576 8.95258C0.688755 8.67417 0.708666 8.44892 0.804664 8.26941ZM13.9247 18.0603C13.8888 18.753 13.3118 19.2957 12.6113 19.2957H2.6304C1.92962 19.2957 1.35292 18.753 1.31665 18.0536L0.725021 9.73253L1.03435 9.91625C1.36963 10.1155 1.74615 10.2133 2.12161 10.2112C2.49743 10.2133 2.87359 10.1155 3.20888 9.91625L3.33225 9.84304C3.50718 9.73886 3.70309 9.68748 3.89935 9.68536C4.09561 9.68748 4.29152 9.73886 4.4668 9.84304L4.72031 9.99368C5.04101 10.1841 5.40438 10.2658 5.76349 10.2464C5.79549 10.245 5.82748 10.245 5.85984 10.2422C5.86375 10.2418 5.86731 10.2397 5.87157 10.2394C6.11441 10.2123 6.35263 10.1366 6.57236 10.0127C6.59298 10.0053 6.61502 10.0049 6.63422 9.99368L6.88773 9.84304C7.06266 9.73886 7.25856 9.68748 7.45483 9.68536C7.65109 9.68748 7.84699 9.73886 8.02228 9.84304L8.27578 9.99368C8.54493 10.1531 8.84431 10.2358 9.14545 10.2482C9.1515 10.2485 9.1579 10.2492 9.16394 10.2492C9.26776 10.2524 9.37158 10.2492 9.47469 10.2348C9.53371 10.2274 9.59095 10.2126 9.64891 10.1996C9.677 10.1929 9.70509 10.1869 9.73282 10.1788C9.89068 10.1355 10.0453 10.0789 10.1893 9.99333L10.4428 9.84269C10.6178 9.73851 10.8137 9.68712 11.0099 9.68501C11.2062 9.68712 11.4021 9.73851 11.5774 9.84269L11.8309 9.99333C12.1246 10.1676 12.4542 10.2531 12.7834 10.2517C12.7887 10.2517 12.7944 10.2527 12.7998 10.2527C13.1191 10.2527 13.4387 10.1704 13.7253 10.0049L14.4228 9.69803C14.4378 9.69135 14.4484 9.67868 14.4623 9.67023L14.5167 9.6463L13.9247 18.0603Z" fill="white"/>
<path d="M0.355548 0.703927H2.84438C3.04064 0.703927 3.19993 0.5466 3.19993 0.351964C3.19993 0.157328 3.04064 5.69277e-07 2.84438 5.69277e-07H0.355548C0.159285 5.69277e-07 8.95162e-08 0.157328 8.95162e-08 0.351964C8.95162e-08 0.5466 0.159285 0.703927 0.355548 0.703927Z" transform="translate(1.77814 14.4319)" fill="white"/>
<path d="M0.355548 0.703927H3.55548C3.75174 0.703927 3.91102 0.5466 3.91102 0.351964C3.91102 0.157328 3.75174 5.69277e-07 3.55548 5.69277e-07H0.355548C0.159285 5.69277e-07 8.95162e-08 0.157328 8.95162e-08 0.351964C8.95162e-08 0.5466 0.159285 0.703927 0.355548 0.703927Z" transform="translate(1.77814 15.8398)" fill="white"/>
<path d="M4.26657 5.69277e-07H0.355548C0.159285 5.69277e-07 8.95162e-08 0.157328 8.95162e-08 0.351964C8.95162e-08 0.5466 0.159285 0.703927 0.355548 0.703927H4.26657C4.46283 0.703927 4.62212 0.5466 4.62212 0.351964C4.62212 0.157328 4.46283 5.69277e-07 4.26657 5.69277e-07Z" transform="translate(1.77814 17.2476)" fill="white"/>
<path d="M1.06664 5.69277e-07H0.355547C0.159285 5.69277e-07 -2.4956e-07 0.157328 -2.4956e-07 0.351964C-2.4956e-07 0.5466 0.159285 0.703927 0.355547 0.703927H1.06664C1.2629 0.703927 1.42219 0.5466 1.42219 0.351964C1.42219 0.157328 1.2629 5.69277e-07 1.06664 5.69277e-07Z" transform="translate(7.11136 17.2476)" fill="white"/>
</svg>
