<svg width="19" height="18" viewBox="0 0 19 18" fill="none" xmlns="http://www.w3.org/2000/svg">
<path d="M9.5 17.2823L8.5287 16.2821L8.51803 16.2711L8.50671 16.2608C6.02853 14.0034 4.01857 12.1481 2.62328 10.4C1.23408 8.65957 0.5 7.08025 0.5 5.38043C0.5 2.61005 2.56986 0.5 5.225 0.5C6.685 0.5 8.16018 1.21138 9.11369 2.37178L9.5 2.84191L9.88631 2.37178C10.8398 1.21138 12.315 0.5 13.775 0.5C16.4301 0.5 18.5 2.61005 18.5 5.38043C18.5 7.08025 17.7659 8.65957 16.3767 10.4C14.9814 12.1481 12.9715 14.0034 10.4933 16.2608L10.482 16.2711L10.4713 16.2821L9.5 17.2823Z" stroke="#3E3430"/>
</svg>
