<svg width="23" height="22" viewBox="0 0 23 22" fill="none" xmlns="http://www.w3.org/2000/svg">
<path d="M8.55827 9.54378C8.40112 9.69738 8.40112 9.94567 8.55827 10.0993C8.63665 10.1759 8.73954 10.2144 8.84243 10.2144C8.94533 10.2144 9.04822 10.1759 9.1266 10.0993L13.9493 5.38538C13.9867 5.34924 14.0161 5.30563 14.0366 5.25731C14.0772 5.16146 14.0772 5.05342 14.0366 4.95717C14.0161 4.90885 13.9863 4.86524 13.9493 4.82871L9.1266 0.115205C8.96944 -0.0384017 8.71542 -0.0384017 8.55827 0.115205C8.40112 0.268813 8.40112 0.517098 8.55827 0.670706L12.6953 4.71438H0.401929C0.179662 4.71438 0 4.88999 0 5.10724C0 5.32449 0.179662 5.5001 0.401929 5.5001H12.6953L8.55827 9.54378Z" transform="translate(8.93262 5.89307)" fill="#3E3430" fill-opacity="0.7"/>
<path d="M15.2733 0H0.401929C0.179662 0 0 0.175607 0 0.392857V8.64286C0 8.86011 0.179662 9.03571 0.401929 9.03571C0.624195 9.03571 0.803858 8.86011 0.803858 8.64286V0.785714H14.8714V21.2143H0.803858V13.3571C0.803858 13.1399 0.624195 12.9643 0.401929 12.9643C0.179662 12.9643 0 13.1399 0 13.3571V21.6071C0 21.8244 0.179662 22 0.401929 22H15.2733C15.4956 22 15.6752 21.8244 15.6752 21.6071V0.392857C15.6752 0.175607 15.4956 0 15.2733 0Z" transform="translate(15.6748 22) rotate(180)" fill="#3E3430" fill-opacity="0.7"/>
</svg>
