<svg width="36" height="50" viewBox="0 0 36 50" fill="none" xmlns="http://www.w3.org/2000/svg">
<path d="M30.3778 4.95581C26.7546 1.50627 22.005 -0.243604 17.0025 0.0273436C12.4465 0.274642 8.17662 2.27592 4.97939 5.66261C1.7842 9.04702 0.0157984 13.4375 0.000108811 18.0251C-0.0213837 24.3037 3.13533 30.0506 8.44442 33.3981C9.61662 34.1372 10.3164 35.3915 10.3164 36.7534C10.3164 40.1289 11.5634 43.3557 13.8275 45.8392C16.1216 48.3555 19.2152 49.8279 22.5386 49.9851C22.7483 49.995 22.9573 50 23.1656 50C26.4843 50 29.6088 48.7466 32.0214 46.4334C34.5871 43.9737 36 40.6572 36 37.0949V18.0886C35.9999 13.0716 34.0032 8.40761 30.3778 4.95581ZM34.388 37.0949C34.388 40.21 33.1522 43.1103 30.9086 45.2614C28.6663 47.411 25.7204 48.5134 22.6142 48.3671C19.7191 48.23 17.0206 46.9438 15.016 44.745C13.0248 42.561 11.9283 39.7228 11.9283 36.7534C11.9283 34.8304 10.9461 33.0632 9.30111 32.026C4.46679 28.9778 1.59238 23.7459 1.61194 18.0306C1.62623 13.8576 3.23742 9.86116 6.14869 6.77739C9.06115 3.69243 12.9466 1.86966 17.0894 1.64482C21.6442 1.39753 25.9705 2.99092 29.2691 6.13161C32.57 9.27445 34.3878 13.5207 34.3878 18.0885V37.0949H34.388Z" fill="#3E3430"/>
<path d="M0.236069 0.237228C-0.0786888 0.553532 -0.0786888 1.06638 0.236069 1.38257L7.47852 8.66059C7.63584 8.81868 7.84217 8.89784 8.04839 8.89784C8.25461 8.89784 8.46094 8.81879 8.61827 8.66059C8.93303 8.34428 8.93303 7.83144 8.61827 7.51524L1.37582 0.237228C1.06117 -0.0790761 0.550828 -0.0790761 0.236069 0.237228Z" transform="translate(22.5996 4.5686)" fill="#3E3430"/>
<path d="M0.236068 0.237228C-0.0786901 0.553531 -0.0786901 1.06638 0.236068 1.38257L16.3623 17.588C16.5197 17.7461 16.726 17.8253 16.9322 17.8253C17.1384 17.8253 17.3448 17.7462 17.5021 17.588C17.8169 17.2717 17.8169 16.7589 17.5021 16.4427L1.37582 0.237228C1.06106 -0.0790761 0.550719 -0.0790761 0.236068 0.237228Z" transform="translate(14.8228 3.66504)" fill="#3E3430"/>
<path d="M14.4463 13.3719C14.7577 12.8574 14.9373 12.2539 14.9373 11.6089C14.9373 9.73325 13.4187 8.20724 11.5522 8.20724C10.9104 8.20724 10.3098 8.38769 9.79788 8.70065L1.37582 0.237228C1.06106 -0.0790758 0.55072 -0.0790758 0.236069 0.237228C-0.078689 0.553532 -0.078689 1.06638 0.236069 1.38257L8.65813 9.846C8.34671 10.3605 8.16714 10.964 8.16714 11.6089C8.16714 13.4846 9.68569 15.0106 11.5522 15.0106C12.194 15.0106 12.7946 14.8302 13.3065 14.5172L21.2988 22.5487C21.4561 22.7068 21.6624 22.7859 21.8686 22.7859C22.0749 22.7859 22.2812 22.7069 22.4385 22.5487C22.7533 22.2324 22.7533 21.7195 22.4385 21.4033L14.4463 13.3719ZM9.77908 11.6089C9.77908 10.6264 10.5745 9.8271 11.5522 9.8271C12.5299 9.8271 13.3253 10.6264 13.3253 11.6089C13.3253 12.5914 12.5299 13.3908 11.5522 13.3908C10.5745 13.3908 9.77908 12.5915 9.77908 11.6089Z" transform="translate(9.88647 5.61572)" fill="#3E3430"/>
<path d="M1.37582 0.237228C1.06106 -0.0790758 0.55072 -0.0790758 0.236069 0.237228C-0.0786894 0.553532 -0.0786894 1.06638 0.236069 1.38257L24.8787 26.1462C25.036 26.3043 25.2423 26.3834 25.4485 26.3834C25.6548 26.3834 25.8611 26.3044 26.0184 26.1462C26.3332 25.8299 26.3332 25.317 26.0184 25.0008L1.37582 0.237228Z" transform="translate(6.30664 8.92969)" fill="#3E3430"/>
<path d="M1.37582 0.237228C1.06106 -0.0790759 0.550719 -0.0790759 0.236069 0.237228C-0.0786896 0.553532 -0.0786896 1.06638 0.236069 1.38257L26.4405 27.7157C26.5978 27.8738 26.8042 27.953 27.0104 27.953C27.2166 27.953 27.4229 27.8739 27.5803 27.7157C27.895 27.3994 27.895 26.8866 27.5803 26.5704L1.37582 0.237228Z" transform="translate(3.9812 13.5049)" fill="#3E3430"/>
<path d="M1.37582 0.237228C1.06106 -0.0790759 0.55072 -0.0790759 0.236069 0.237228C-0.0786895 0.553532 -0.0786895 1.06638 0.236069 1.38257L23.4931 24.7539C23.6505 24.912 23.8568 24.9911 24.063 24.9911C24.2692 24.9911 24.4756 24.9121 24.6329 24.7539C24.9477 24.4375 24.9477 23.9247 24.6329 23.6085L1.37582 0.237228Z" transform="translate(3.74243 20.1758)" fill="#3E3430"/>
<path d="M1.37582 0.237228C1.06106 -0.0790761 0.550719 -0.0790761 0.236069 0.237228C-0.0786897 0.553532 -0.0786897 1.06638 0.236069 1.38257L7.87173 9.05572C8.02905 9.21382 8.23538 9.29298 8.4416 9.29298C8.64782 9.29298 8.85415 9.21393 9.01147 9.05572C9.32623 8.73942 9.32623 8.22657 9.01147 7.91038L1.37582 0.237228Z" transform="translate(13.8042 37.1982)" fill="#3E3430"/>
</svg>
