<svg width="30" height="28" viewBox="0 0 30 28" fill="none" xmlns="http://www.w3.org/2000/svg">
<path fill-rule="evenodd" clip-rule="evenodd" d="M14.9962 14.943L28.5665 27.7667C28.8956 28.0778 29.4235 28.0778 29.7526 27.7667C30.0822 27.4558 30.0822 26.957 29.7526 26.646L16.3712 14.0007L29.7526 1.35559C30.0822 1.04456 30.0822 0.545776 29.7526 0.234741C29.5914 0.0822754 29.3741 0.00012207 29.1627 0.00012207C28.9518 0.00012207 28.7345 0.076416 28.5729 0.234741L15.0035 13.057L1.43323 0.233276C1.10413 -0.0777588 0.576294 -0.0777588 0.247192 0.233276C-0.0823975 0.544189 -0.0823975 1.04297 0.247192 1.354L13.6285 13.9993L0.247192 26.6444C-0.0823975 26.9554 -0.0823975 27.4542 0.247192 27.7653C0.408325 27.9177 0.62561 27.9999 0.837036 27.9999C1.04797 27.9999 1.26526 27.9236 1.42688 27.7653L14.9962 14.943Z" fill="#FFFCF7"/>
</svg>
