<svg width="43" height="50" viewBox="0 0 43 50" fill="none" xmlns="http://www.w3.org/2000/svg">
<path d="M0.791547 1.42848e-07C0.355141 1.42848e-07 0 0.357978 0 0.797871C0 1.23776 0.355141 1.59574 0.791547 1.59574C1.22795 1.59574 1.58309 1.23776 1.58309 0.797871C1.58309 0.357978 1.22795 1.42848e-07 0.791547 1.42848e-07Z" transform="translate(9.62671 19.5552)" fill="black"/>
<path d="M0.791546 -4.15558e-07C0.35514 -4.15558e-07 -6.69929e-07 0.357978 -6.69929e-07 0.79787C-6.69929e-07 1.23776 0.35514 1.59574 0.791546 1.59574C1.22795 1.59574 1.58309 1.23776 1.58309 0.79787C1.58309 0.357978 1.22795 -4.15558e-07 0.791546 -4.15558e-07Z" transform="translate(12.3396 22.2759)" fill="black"/>
<path d="M0.791547 1.42848e-07C0.355141 1.42848e-07 0 0.357978 0 0.797871C0 1.23776 0.355141 1.59574 0.791547 1.59574C1.22795 1.59574 1.58309 1.23776 1.58309 0.797871C1.58309 0.357978 1.22795 1.42848e-07 0.791547 1.42848e-07Z" transform="translate(29.6792 9.98047)" fill="black"/>
<path d="M21.4999 0C9.64474 0 -7.40787e-08 9.34275 -7.40787e-08 20.8267C-7.40787e-08 24.7568 2.2081 27.6397 6.56298 29.3951C7.28814 29.6875 8.07135 29.9484 8.91282 30.1795V36.0972C8.91282 36.4773 9.17888 36.8046 9.5487 36.8795C9.68716 36.9075 9.82795 36.934 9.96821 36.9608V42.6644C9.96821 46.7092 13.2329 50 17.2457 50H25.7543C29.767 50 33.0318 46.7092 33.0318 42.6644V39.4868C33.0318 39.0461 32.6774 38.689 32.2402 38.689C31.8031 38.689 31.4487 39.0461 31.4487 39.4868V42.6644C31.4487 45.8294 28.8942 48.4043 25.7543 48.4043H17.2457C14.1059 48.4043 11.5513 45.8294 11.5513 42.6644V37.2334C14.4545 37.6777 17.7311 37.8951 21.5 37.8951C26.1618 37.8951 30.0711 37.5629 33.4513 36.8795C33.821 36.8047 34.0872 36.4774 34.0872 36.0972V30.1795C34.9286 29.9486 35.7118 29.6875 36.437 29.3951C40.7919 27.6397 43 24.7568 43 20.8267C42.9998 9.34275 33.3551 0 21.4999 0ZM32.504 35.4378C29.3728 36.0172 25.7643 36.2993 21.4999 36.2993C17.2355 36.2993 13.627 36.0173 10.4958 35.4378V30.5631C13.4852 31.1994 17.1243 31.512 21.4999 31.512C25.8755 31.512 29.5146 31.1993 32.504 30.5631V35.4378ZM35.849 27.9135C32.552 29.2425 27.7243 29.9163 21.4999 29.9163C15.2755 29.9163 10.4478 29.2425 7.15084 27.9135C3.40429 26.4031 1.58309 24.0851 1.58309 20.8267C1.58309 10.2227 10.5177 1.59574 21.4999 1.59574C32.4821 1.59574 41.4167 10.2227 41.4167 20.8267C41.4167 24.0851 39.5955 26.4031 35.849 27.9135Z" fill="black"/>
</svg>
