<svg width="45" height="50" viewBox="0 0 45 50" fill="none" xmlns="http://www.w3.org/2000/svg">
<path d="M19.3235 15.7985H17.7353V13.4049C17.7353 11.7918 16.429 10.4794 14.8235 10.4794H13.8844L11.8959 0.639149C11.8208 0.267234 11.4952 0 11.1176 0H9C8.62242 0 8.29684 0.267234 8.22176 0.639149L6.23329 10.4794H5.29412C3.68862 10.4794 2.38235 11.7918 2.38235 13.4049V15.7985H0.794118C0.355447 15.7985 0 16.1556 0 16.5964V47.6064C0 48.9262 1.06878 50 2.38235 50H17.7353C19.0489 50 20.1176 48.9262 20.1176 47.6064V16.5964C20.1176 16.1556 19.7622 15.7985 19.3235 15.7985ZM9.64906 1.59574H10.4686L12.2638 10.4794H7.85393L9.64906 1.59574ZM3.97059 13.4049C3.97059 12.6716 4.56427 12.0751 5.29412 12.0751H14.8235C15.5534 12.0751 16.1471 12.6716 16.1471 13.4049V15.7985H3.97059V13.4049ZM18.5294 47.6064C18.5294 48.0464 18.1732 48.4043 17.7353 48.4043H2.38235C1.94442 48.4043 1.58824 48.0464 1.58824 47.6064V17.3943H18.5294V47.6064Z" transform="translate(24.8823)" fill="#3E3430"/>
<path d="M12.9706 -3.50628e-07C11.931 -3.50628e-07 11.3654 0.454574 10.9524 0.786595C10.6133 1.05904 10.4088 1.2234 9.92626 1.2234C9.44375 1.2234 9.23919 1.05894 8.90015 0.786595C8.48721 0.45468 7.92159 -3.50628e-07 6.88193 -3.50628e-07C5.84248 -3.50628e-07 5.27697 0.454574 4.86392 0.786595C4.5251 1.05904 4.32042 1.2234 3.83813 1.2234C3.35562 1.2234 3.15106 1.05894 2.81224 0.786595C2.39929 0.45468 1.83367 -3.50628e-07 0.794118 -3.50628e-07C0.355447 -3.50628e-07 0 0.357127 0 0.797872V27.0206C0 27.4614 0.355447 27.8185 0.794118 27.8185H12.9706C13.4093 27.8185 13.7647 27.4614 13.7647 27.0206V21.6618C13.7647 21.2211 13.4093 20.8639 12.9706 20.8639C12.5319 20.8639 12.1765 21.2211 12.1765 21.6618V26.2228H1.58824V1.85202C1.6614 1.90511 1.73658 1.96553 1.8199 2.03255C2.23285 2.36447 2.79847 2.81915 3.83813 2.81915C4.87779 2.81915 5.4432 2.36457 5.85625 2.03255C6.19507 1.76011 6.39964 1.59574 6.88204 1.59574C7.36465 1.59574 7.5691 1.76021 7.90814 2.03255C8.32108 2.36447 8.88671 2.81915 9.92636 2.81915C10.966 2.81915 11.5315 2.36457 11.9446 2.03255C12.028 1.96553 12.1033 1.90511 12.1766 1.85192V18.4703C12.1766 18.9111 12.532 19.2682 12.9707 19.2682C13.4094 19.2682 13.7648 18.9111 13.7648 18.4703V0.797872C13.7647 0.357127 13.4093 -3.50628e-07 12.9706 -3.50628e-07Z" transform="translate(28.0588 18.9902)" fill="#3E3430"/>
<path d="M19.3235 15.7985H17.7353V13.4049C17.7353 11.7918 16.429 10.4794 14.8235 10.4794H13.8844L11.8959 0.639149C11.8208 0.267234 11.4952 0 11.1176 0H9C8.62242 0 8.29684 0.267234 8.22177 0.639149L6.23329 10.4794H5.29412C3.68862 10.4794 2.38235 11.7918 2.38235 13.4049V15.7985H0.794118C0.355447 15.7985 0 16.1556 0 16.5964V47.6064C0 48.9262 1.06878 50 2.38235 50H17.7353C19.0489 50 20.1176 48.9262 20.1176 47.6064V16.5964C20.1176 16.1556 19.7622 15.7985 19.3235 15.7985ZM9.64906 1.59574H10.4686L12.2638 10.4794H7.85382L9.64906 1.59574ZM3.97059 13.4049C3.97059 12.6716 4.56427 12.0751 5.29412 12.0751H14.8235C15.5534 12.0751 16.1471 12.6716 16.1471 13.4049V15.7985H3.97059V13.4049ZM18.5294 47.6064C18.5294 48.0464 18.1732 48.4043 17.7353 48.4043H2.38235C1.94442 48.4043 1.58824 48.0464 1.58824 47.6064V17.3943H18.5294V47.6064Z" fill="#3E3430"/>
<path d="M12.9706 -9.86951e-07C11.931 -9.86951e-07 11.3654 0.454575 10.9524 0.786596C10.6133 1.05904 10.4088 1.2234 9.92626 1.2234C9.44375 1.2234 9.23919 1.05894 8.90015 0.786596C8.48721 0.454681 7.92159 -9.86951e-07 6.88193 -9.86951e-07C5.84248 -9.86951e-07 5.27696 0.454575 4.86392 0.786596C4.52509 1.05904 4.32042 1.2234 3.83813 1.2234C3.35562 1.2234 3.15106 1.05894 2.81224 0.786596C2.39929 0.454681 1.83367 -9.86951e-07 0.794118 -9.86951e-07C0.355447 -9.86951e-07 0 0.357127 0 0.797871V14.7071C0 15.1479 0.355447 15.505 0.794118 15.505H12.9706C13.4093 15.505 13.7647 15.1479 13.7647 14.7071V9.3483C13.7647 8.90755 13.4093 8.55043 12.9706 8.55043C12.5319 8.55043 12.1765 8.90755 12.1765 9.3483V13.9093H1.58824V1.85202C1.6614 1.9051 1.73658 1.96553 1.81991 2.03255C2.23285 2.36447 2.79847 2.81915 3.83813 2.81915C4.87779 2.81915 5.4432 2.36458 5.85625 2.03255C6.19507 1.76011 6.39964 1.59574 6.88204 1.59574C7.36465 1.59574 7.56911 1.76021 7.90814 2.03255C8.32108 2.36447 8.88671 2.81915 9.92636 2.81915C10.966 2.81915 11.5315 2.36458 11.9446 2.03255C12.028 1.96553 12.1033 1.905 12.1766 1.85192V6.15681C12.1766 6.59755 12.532 6.95468 12.9707 6.95468C13.4094 6.95468 13.7648 6.59755 13.7648 6.15681V0.797871C13.7647 0.357127 13.4093 -9.86951e-07 12.9706 -9.86951e-07Z" transform="translate(3.17651 31.3032)" fill="#3E3430"/>
</svg>
