<svg width="50" height="39" viewBox="0 0 50 39" fill="none" xmlns="http://www.w3.org/2000/svg">
<path d="M37.7162 -1.54528e-07H19.6702C8.824 -1.54528e-07 0 8.74763 0 19.5C0 30.2524 8.824 39 19.6702 39C24.1751 39 28.5777 37.4516 32.067 34.6401C35.3481 31.9961 37.6997 28.3474 38.7351 24.313C41.6983 24.0723 44.4484 22.7868 46.5347 20.6544C48.7693 18.3706 50 15.36 50 12.1776C50 5.46285 44.4895 -1.54528e-07 37.7162 -1.54528e-07ZM38.0702 22.7662C37.7057 22.7779 37.3956 23.0331 37.3168 23.3862C35.5033 31.5165 28.0818 37.4176 19.6701 37.4176C9.70413 37.4176 1.59618 29.3798 1.59618 19.5C1.59618 9.62025 9.70413 1.58236 19.6702 1.58236H37.7161C43.6093 1.58236 48.4038 6.33536 48.4038 12.1776C48.4038 17.9284 43.8647 22.5794 38.0702 22.7662Z" fill="#3E3430"/>
<path d="M34.5239 -1.54528e-07H16.4779C7.39191 -1.54528e-07 0 7.32793 0 16.3353C0 25.3426 7.39191 32.6705 16.4779 32.6705C20.3064 32.6705 23.8968 31.408 26.861 29.0196C29.7432 26.6971 31.7693 23.4513 32.566 19.8798L32.9674 18.0798L34.8259 18.02C37.1898 17.9437 39.4005 16.9729 41.0506 15.2863C42.7044 13.5962 43.6152 11.3682 43.6152 9.01283C43.6153 4.04326 39.5368 -1.54528e-07 34.5239 -1.54528e-07ZM39.905 14.1845C38.5444 15.5751 36.7222 16.3756 34.7742 16.4383L32.296 16.5182C31.9316 16.5299 31.6215 16.7851 31.5426 17.1382L31.0074 19.5381C30.2881 22.7622 28.458 25.6935 25.8542 27.7915C23.1778 29.9481 19.9354 31.0881 16.4778 31.0881C8.27193 31.0881 1.59607 24.47 1.59607 16.3352C1.59607 8.20034 8.27193 1.58226 16.4778 1.58226H34.5237C38.6566 1.58226 42.019 4.91556 42.019 9.01272C42.0191 10.9546 41.2683 12.7913 39.905 14.1845Z" transform="translate(3.19238 3.16455)" fill="#3E3430"/>
<path d="M0.79809 3.99197e-07C0.357331 3.99197e-07 0 0.354133 0 0.791182V23.3249C0 23.7619 0.357331 24.1161 0.79809 24.1161C1.23885 24.1161 1.59618 23.7619 1.59618 23.3249V0.791182C1.59618 0.354239 1.23885 3.99197e-07 0.79809 3.99197e-07Z" transform="translate(13.7006 7.44189)" fill="#3E3430"/>
<path d="M0.79809 -1.26198e-06C0.357331 -1.26198e-06 0 0.354132 0 0.791181V6.85586C0 7.29291 0.357331 7.64704 0.79809 7.64704C1.23885 7.64704 1.59618 7.29291 1.59618 6.85586V0.791181C1.59618 0.354132 1.23885 -1.26198e-06 0.79809 -1.26198e-06Z" transform="translate(24.2087 23.8447)" fill="#3E3430"/>
<path d="M0.79809 -1.54528e-07C0.357331 -1.54528e-07 0 0.354133 0 0.791182V15.1413C0 15.5784 0.357331 15.9325 0.79809 15.9325C1.23885 15.9325 1.59618 15.5784 1.59618 15.1413V0.791182C1.59618 0.354238 1.23885 -1.54528e-07 0.79809 -1.54528e-07Z" transform="translate(24.2087 6.32959)" fill="#3E3430"/>
<path d="M0.798088 -1.54528e-07C0.35733 -1.54528e-07 -1.27299e-06 0.354133 -1.27299e-06 0.791182V10.9795C-1.27299e-06 11.4165 0.35733 11.7707 0.798088 11.7707C1.23885 11.7707 1.59618 11.4165 1.59618 10.9795V0.791182C1.59618 0.354238 1.23885 -1.54528e-07 0.798088 -1.54528e-07Z" transform="translate(34.7163 6.32959)" fill="#3E3430"/>
</svg>
