<svg width="9" height="7" viewBox="0 0 9 7" fill="none" xmlns="http://www.w3.org/2000/svg">
<path d="M5.47554 6.54043C5.37499 6.6457 5.37499 6.81585 5.47554 6.92112C5.52568 6.97362 5.59151 7 5.65735 7C5.72318 7 5.78901 6.97362 5.83915 6.92112L8.92472 3.69065C8.94863 3.66588 8.96741 3.63599 8.98052 3.60288C9.00649 3.53719 9.00649 3.46315 8.98052 3.39719C8.96741 3.36407 8.94838 3.33419 8.92472 3.30915L5.83915 0.0789512C5.73861 -0.026317 5.57609 -0.026317 5.47554 0.0789512C5.37499 0.184219 5.37499 0.354372 5.47554 0.45964L8.1224 3.23081H0.257152C0.114947 3.23081 0 3.35115 0 3.50003C0 3.64892 0.114947 3.76926 0.257152 3.76926H8.1224L5.47554 6.54043Z" fill="black" fill-opacity="0.5"/>
</svg>
