<svg width="26" height="30" viewBox="0 0 26 30" fill="none" xmlns="http://www.w3.org/2000/svg">
<path d="M25.2927 2.82662H17.2153V1.40361C17.2153 0.629648 16.5854 0 15.8112 0H10.1888C9.4146 0 8.78477 0.629648 8.78477 1.40361V2.82656H0.707254C0.316618 2.82656 -7.1653e-09 3.14262 -7.1653e-09 3.53256C-7.1653e-09 3.9225 0.316618 4.23855 0.707254 4.23855H2.0181L2.91196 27.4649C2.96666 28.8864 4.12589 30 5.55114 30H20.449C21.8742 30 23.0335 28.8864 23.088 27.4648L23.9819 4.2385H25.2927C25.6833 4.2385 26 3.92244 26 3.5325C26 3.14268 25.6834 2.82662 25.2927 2.82662ZM10.1992 1.41193H15.8008V2.82656H10.1992V1.41193ZM21.6746 27.4107C21.6492 28.0709 21.1109 28.5881 20.4489 28.5881H5.55114C4.88926 28.5881 4.35088 28.0709 4.32541 27.4106L3.43367 4.23855H22.5665L21.6746 27.4107Z" fill="#3E3430" fill-opacity="0.5"/>
<path d="M1.4143 0.692402C1.40685 0.307148 1.09182 -1.28746e-07 0.707481 -1.28746e-07C0.702903 -1.28746e-07 0.698207 -1.93122e-07 0.693629 0.000116994C0.303182 0.007617 -0.00737947 0.329765 0.000133644 0.719531L0.222063 12.2411C0.229459 12.6263 0.544599 12.9335 0.928883 12.9335C0.933461 12.9335 0.938157 12.9335 0.942735 12.9333C1.33324 12.9258 1.64374 12.6038 1.63623 12.2139L1.4143 0.692402Z" transform="translate(7.27808 9.94629)" fill="#3E3430" fill-opacity="0.5"/>
<path d="M0.707255 3.50475e-07C0.316677 3.50475e-07 3.00943e-07 0.316055 3.00943e-07 0.705996V12.2275C3.00943e-07 12.6174 0.316618 12.9335 0.707255 12.9335C1.09789 12.9335 1.41451 12.6175 1.41451 12.2275V0.705996C1.41451 0.316113 1.09789 3.50475e-07 0.707255 3.50475e-07Z" transform="translate(12.293 9.94629)" fill="#3E3430" fill-opacity="0.5"/>
<path d="M0.942738 0.00017445C0.553699 -0.00843883 0.229521 0.302636 0.222066 0.69246L0.000135479 12.214C-0.00743634 12.6038 0.303126 12.9259 0.693632 12.9334C0.69821 12.9335 0.702906 12.9335 0.707484 12.9335C1.09171 12.9335 1.40691 12.6263 1.4143 12.2411L1.63623 0.719589C1.64375 0.329706 1.3333 0.00761586 0.942738 0.00017445Z" transform="translate(17.084 9.94629)" fill="#3E3430" fill-opacity="0.5"/>
</svg>
