<svg width="19" height="26" viewBox="0 0 19 26" fill="none" xmlns="http://www.w3.org/2000/svg">
<path d="M16.9406 18.5852L12.9948 16.5156C12.6226 16.3202 12.3913 15.9276 12.3913 15.4908V14.0257C12.4859 13.9044 12.5854 13.7661 12.6883 13.6136C13.2 12.8553 13.6102 12.0111 13.9084 11.1007C14.4912 10.8203 14.8696 10.2158 14.8696 9.53333V7.8C14.8696 7.3827 14.7209 6.9784 14.4565 6.6625V4.3576C14.4797 4.11927 14.5705 2.70053 13.5924 1.5301C12.744 0.5148 11.3674 0 9.5 0C7.63263 0 6.25596 0.5148 5.40756 1.52967C4.42948 2.7001 4.52035 4.11927 4.54348 4.3576V6.6625C4.27913 6.9784 4.13043 7.3827 4.13043 7.8V9.53333C4.13043 10.0607 4.35885 10.5525 4.74876 10.8806C5.12711 12.4523 5.91891 13.6366 6.19565 14.0166V15.4505C6.19565 15.87 5.97756 16.2548 5.62689 16.4558L1.94213 18.5644C0.743891 19.2504 0 20.5651 0 21.9969V23.4C0 25.4566 6.21424 26 9.5 26C12.7858 26 19 25.4566 19 23.4V22.0814C19 20.5916 18.2107 19.2517 16.9406 18.5852ZM18.1739 23.4C18.1739 23.988 15.1124 25.1333 9.5 25.1333C3.88757 25.1333 0.826087 23.988 0.826087 23.4V21.9969C0.826087 20.8828 1.40517 19.8588 2.33741 19.3258L6.02217 17.2172C6.63885 16.864 7.02174 16.1867 7.02174 15.4505V13.7089L6.9255 13.5885C6.91559 13.5759 5.90322 12.2911 5.51702 10.527L5.47943 10.3554L5.33859 10.26C5.09943 10.098 4.95652 9.82627 4.95652 9.53333V7.8C4.95652 7.5569 5.05483 7.33027 5.23326 7.16083L5.36957 7.03213V4.33333L5.36585 4.27657C5.36461 4.26487 5.22417 3.06367 6.02878 2.1008C6.7132 1.2818 7.88128 0.866667 9.5 0.866667C11.1129 0.866667 12.2785 1.27877 12.9638 2.09213C13.768 3.0459 13.635 4.26617 13.6342 4.27657L13.6304 7.03213L13.7667 7.16127C13.9452 7.33027 14.0435 7.5569 14.0435 7.8V9.53333C14.0435 9.91163 13.8072 10.2427 13.4561 10.3562L13.2504 10.4225L13.1843 10.637C12.908 11.5388 12.5144 12.3717 12.0138 13.1127C11.8911 13.2951 11.7717 13.4567 11.6681 13.5802L11.5652 13.7033V15.4908C11.5652 16.2578 11.9712 16.9472 12.6251 17.2904L16.5709 19.36C17.5597 19.8787 18.1739 20.9213 18.1739 22.0814V23.4Z" fill="#3E3430"/>
</svg>
